<svg width="507" height="270" viewBox="0 0 507 270" fill="none" xmlns="http://www.w3.org/2000/svg">
<g filter="url(#filter0_b_255_1896)">
<rect width="506.101" height="276.03" rx="15.1409" fill="url(#paint0_linear_255_1896)"/>
<rect x="0.582341" y="0.582341" width="504.937" height="274.865" rx="14.5585" stroke="url(#paint1_linear_255_1896)" stroke-width="1.16468"/>
</g>
<rect x="19.6013" y="21.2727" width="39.0331" height="237.16" rx="5.85767" stroke="#555252" stroke-width="0.616597"/>
<path d="M43.5231 93.618C44.7396 93.618 45.7258 92.6015 45.7258 91.3476C45.7258 90.0937 44.7396 89.0771 43.5231 89.0771C42.3065 89.0771 41.3203 90.0937 41.3203 91.3476C41.3203 92.6015 42.3065 93.618 43.5231 93.618Z" stroke="white" stroke-width="0.986555" stroke-linecap="round" stroke-linejoin="round"/>
<path d="M34.7106 98.9159C35.9271 98.9159 36.9133 97.8994 36.9133 96.6454C36.9133 95.3915 35.9271 94.375 34.7106 94.375C33.494 94.375 32.5078 95.3915 32.5078 96.6454C32.5078 97.8994 33.494 98.9159 34.7106 98.9159Z" stroke="white" stroke-width="0.986555" stroke-linecap="round" stroke-linejoin="round"/>
<path d="M43.5231 104.213C44.7396 104.213 45.7258 103.197 45.7258 101.943C45.7258 100.689 44.7396 99.6724 43.5231 99.6724C42.3065 99.6724 41.3203 100.689 41.3203 101.943C41.3203 103.197 42.3065 104.213 43.5231 104.213Z" stroke="white" stroke-width="0.986555" stroke-linecap="round" stroke-linejoin="round"/>
<path d="M36.6133 97.7881L41.6282 100.8" stroke="white" stroke-width="0.986555" stroke-linecap="round" stroke-linejoin="round"/>
<path d="M41.6209 92.4902L36.6133 95.5023" stroke="white" stroke-width="0.986555" stroke-linecap="round" stroke-linejoin="round"/>
<path d="M39.7185 205.489C43.0363 205.489 45.726 202.716 45.726 199.297C45.726 195.877 43.0363 193.104 39.7185 193.104C36.4006 193.104 33.7109 195.877 33.7109 199.297C33.7109 202.716 36.4006 205.489 39.7185 205.489Z" stroke="white" stroke-width="0.986555" stroke-linecap="round" stroke-linejoin="round"/>
<path d="M39.7188 201.773V199.296" stroke="white" stroke-width="0.986555" stroke-linecap="round" stroke-linejoin="round"/>
<path d="M39.7188 196.82H39.7238" stroke="white" stroke-width="0.986555" stroke-linecap="round" stroke-linejoin="round"/>
<path d="M39.1167 74.2161C36.1306 74.2161 33.7099 71.721 33.7099 68.6432C33.7099 65.5654 36.1306 63.0703 39.1167 63.0703C42.1027 63.0703 44.5234 65.5654 44.5234 68.6432C44.5234 71.721 42.1027 74.2161 39.1167 74.2161Z" stroke="white" stroke-width="0.986555" stroke-linecap="round" stroke-linejoin="round"/>
<path d="M32.5071 75.4544L34.9102 72.9775" stroke="white" stroke-width="0.986555" stroke-linecap="round" stroke-linejoin="round"/>
<path d="M39.1161 38.3022L32.5078 41.3983L39.1161 44.4943L45.7244 41.3983L39.1161 38.3022Z" stroke="white" stroke-width="0.986555" stroke-linecap="round" stroke-linejoin="round"/>
<path d="M32.5078 46.9712L39.1161 49.448L45.7244 46.9712" stroke="white" stroke-width="0.986555" stroke-linecap="round" stroke-linejoin="round"/>
<path d="M32.5078 44.4941L39.1161 46.971L45.7244 44.4941" stroke="white" stroke-width="0.986555" stroke-linecap="round" stroke-linejoin="round"/>
<defs>
<filter id="filter0_b_255_1896" x="-46.5873" y="-46.5873" width="599.276" height="369.204" filterUnits="userSpaceOnUse" color-interpolation-filters="sRGB">
<feFlood flood-opacity="0" result="BackgroundImageFix"/>
<feGaussianBlur in="BackgroundImageFix" stdDeviation="23.2936"/>
<feComposite in2="SourceAlpha" operator="in" result="effect1_backgroundBlur_255_1896"/>
<feBlend mode="normal" in="SourceGraphic" in2="effect1_backgroundBlur_255_1896" result="shape"/>
</filter>
<linearGradient id="paint0_linear_255_1896" x1="-2.93382e-06" y1="-75.3415" x2="585.133" y2="139.107" gradientUnits="userSpaceOnUse">
<stop stop-color="white" stop-opacity="0.03"/>
<stop offset="1" stop-color="white" stop-opacity="0.03"/>
</linearGradient>
<linearGradient id="paint1_linear_255_1896" x1="425.299" y1="-9.33438" x2="14.8812" y2="201.737" gradientUnits="userSpaceOnUse">
<stop stop-color="white"/>
<stop offset="1" stop-color="#2B2CFF"/>
</linearGradient>
</defs>
</svg>
