<svg width="51" height="50" viewBox="0 0 51 50" fill="none" xmlns="http://www.w3.org/2000/svg">
<g filter="url(#filter0_b_255_1821)">
<rect width="49.1105" height="49.5995" rx="10" transform="matrix(1.00004 -0.00331347 -0.0173459 0.999894 1.78125 0.365723)" fill="url(#paint0_linear_255_1821)"/>
<rect x="0.245674" y="0.249145" width="48.6105" height="49.0995" rx="9.75" transform="matrix(1.00004 -0.00331347 -0.0173459 0.999894 1.78556 0.366563)" stroke="url(#paint1_linear_255_1821)" stroke-width="0.5"/>
</g>
<path fill-rule="evenodd" clip-rule="evenodd" d="M25.743 11.0317C17.8295 11.0579 11.3076 17.5516 11.169 25.5427C11.0626 31.6755 14.7368 36.8829 20.0241 38.9767C20.4853 39.1594 21.0415 39.4116 21.4462 39.1103C21.6348 38.9699 21.7175 38.748 21.721 38.5423V38.5423C21.7453 37.1416 20.4374 36.2002 19.071 35.9186C17.631 35.6218 17.1494 34.7206 16.9632 34.165C16.8093 33.7497 16.1333 32.4684 15.5305 32.1269C15.0339 31.8573 14.3294 31.1908 15.5292 31.1687C16.6575 31.1469 17.4447 32.2109 17.7057 32.6439C18.7878 34.5322 20.4821 34.3225 21.4573 33.984C21.7107 33.896 21.8944 33.5635 21.9665 33.3055V33.3055C22.149 32.6521 21.731 31.7511 21.0797 31.5868C18.5337 30.9444 16.3316 29.2941 16.4101 24.766C16.4227 24.0435 16.5513 23.3778 16.777 22.7708C17.2543 21.4867 17.6802 20.6543 17.6844 19.2936V19.2936C17.6877 18.2173 18.8089 16.9217 19.8123 17.2913C19.9458 17.3405 20.0877 17.3977 20.2382 17.4643C21.4624 18.0061 22.8191 18.2504 24.1625 18.0974C24.6581 18.0409 25.1582 18.0119 25.6578 18.0102C26.1483 18.0086 26.6384 18.0334 27.1233 18.0846C28.4782 18.2277 29.8593 17.9657 31.1185 17.4111C31.2692 17.3448 31.4111 17.2877 31.5444 17.2388C32.5532 16.8683 33.6181 18.1548 33.5881 19.2222V19.2222C33.5496 20.5935 33.9502 21.4347 34.382 22.7272C34.5818 23.3252 34.6846 23.9836 34.6721 24.7055C34.605 28.5733 32.9486 30.3482 30.8699 31.1948C29.8232 31.6211 28.9532 33.4191 28.9337 34.5411V34.5411C28.9001 36.4756 28.8553 38.0305 28.8468 38.5187C28.8402 38.8983 29.1009 39.3494 29.8196 39.2024C32.6798 38.2236 35.1825 36.3701 36.9756 33.9027C38.7687 31.4353 39.7618 28.4783 39.8153 25.4478C39.9539 17.4567 33.6566 11.0054 25.743 11.0317Z" fill="#FFFEFE"/>
<defs>
<filter id="filter0_b_255_1821" x="-48.9062" y="-49.7642" width="149.629" height="149.691" filterUnits="userSpaceOnUse" color-interpolation-filters="sRGB">
<feFlood flood-opacity="0" result="BackgroundImageFix"/>
<feGaussianBlur in="BackgroundImageFix" stdDeviation="25"/>
<feComposite in2="SourceAlpha" operator="in" result="effect1_backgroundBlur_255_1821"/>
<feBlend mode="normal" in="SourceGraphic" in2="effect1_backgroundBlur_255_1821" result="shape"/>
</filter>
<linearGradient id="paint0_linear_255_1821" x1="24.5552" y1="0" x2="24.5552" y2="49.5995" gradientUnits="userSpaceOnUse">
<stop stop-color="white" stop-opacity="0.03"/>
<stop offset="1" stop-color="white" stop-opacity="0.03"/>
</linearGradient>
<linearGradient id="paint1_linear_255_1821" x1="-5.64131" y1="-15.167" x2="47.2969" y2="57.6365" gradientUnits="userSpaceOnUse">
<stop stop-color="#702EF4"/>
<stop offset="1" stop-color="white" stop-opacity="0.23"/>
</linearGradient>
</defs>
</svg>
