<svg width="10" height="11" viewBox="0 0 10 11" fill="none" xmlns="http://www.w3.org/2000/svg">
<g id="Group 3370">
<path id="Vector" d="M2.60979 5.09856H3.62563V6.11211H2.60979V5.09856ZM9.72063 2.56469V9.65952C9.72063 10.217 9.2635 10.6731 8.7048 10.6731H1.59396C1.32454 10.6731 1.06616 10.5663 0.875656 10.3762C0.68515 10.1861 0.578125 9.92833 0.578125 9.65952L0.583204 2.56469C0.583204 2.00724 1.03017 1.55114 1.59396 1.55114H2.10188V0.537598H3.11771V1.55114H7.18105V0.537598H8.19688V1.55114H8.7048C9.2635 1.55114 9.72063 2.00724 9.72063 2.56469ZM1.59396 3.57824H8.7048V2.56469H1.59396V3.57824ZM8.7048 9.65952V4.59179H1.59396V9.65952H8.7048ZM6.67313 6.11211H7.68896V5.09856H6.67313V6.11211ZM4.64146 6.11211H5.65729V5.09856H4.64146V6.11211Z" fill="white"/>
</g>
</svg>
