<svg width="100" height="92" viewBox="0 0 100 92" fill="none" xmlns="http://www.w3.org/2000/svg">
<g clip-path="url(#clip0_255_6547)">
<path d="M50.4479 55.9514C55.6604 55.9514 59.886 51.6476 59.886 46.3385C59.886 41.0294 55.6604 36.7256 50.4479 36.7256C45.2354 36.7256 41.0098 41.0294 41.0098 46.3385C41.0098 51.6476 45.2354 55.9514 50.4479 55.9514Z" fill="#087EA4"/>
<path d="M50.4485 67.9676C76.5112 67.9676 97.6392 58.284 97.6392 46.3385C97.6392 34.3931 76.5112 24.7095 50.4485 24.7095C24.3858 24.7095 3.25781 34.3931 3.25781 46.3385C3.25781 58.284 24.3858 67.9676 50.4485 67.9676Z" stroke="#087EA4" stroke-width="4.25822"/>
<path d="M32.058 57.1532C45.0893 80.1421 63.8871 93.9365 74.0441 87.9638C84.201 81.9911 81.8708 58.513 68.8395 35.5241C55.8081 12.5351 37.0103 -1.25924 26.8534 4.71346C16.6964 10.6862 19.0266 34.1642 32.058 57.1532Z" stroke="#087EA4" stroke-width="4.25822"/>
<path d="M32.0587 35.5239C19.0273 58.5129 16.6972 81.9909 26.8541 87.9636C37.011 93.9363 55.8088 80.1419 68.8402 57.153C81.8715 34.1641 84.2017 10.686 74.0448 4.71329C63.8879 -1.25941 45.09 12.535 32.0587 35.5239Z" stroke="#087EA4" stroke-width="4.25822"/>
</g>
<defs>
<clipPath id="clip0_255_6547">
<rect width="99.1005" height="90.8421" fill="white" transform="translate(0.898438 0.91748)"/>
</clipPath>
</defs>
</svg>
