<svg width="86" height="86" viewBox="0 0 86 86" fill="none" xmlns="http://www.w3.org/2000/svg">
<path d="M7.00904 47.0996C4.93188 45.0224 4.93188 41.6547 7.00904 39.5775L38.9496 7.63697C41.0268 5.55981 44.3945 5.55981 46.4717 7.63697L78.4121 39.5775C80.4893 41.6547 80.4893 45.0224 78.4121 47.0996L46.4717 79.04C44.3945 81.1173 41.0268 81.1173 38.9496 79.04L7.00904 47.0996Z" fill="#EE513B"/>
<path d="M32.4629 14.2271L29.2285 17.4615L37.5824 25.8154C37.2444 26.5404 37.0557 27.349 37.0557 28.2017C37.0557 30.6225 38.5766 32.688 40.7151 33.4947V53.9304C38.5766 54.7371 37.0557 56.8026 37.0557 59.2234C37.0557 62.3468 39.5877 64.8788 42.7111 64.8788C45.8345 64.8788 48.3666 62.3468 48.3666 59.2234C48.3666 57.0288 47.1165 55.1259 45.2895 54.1886V33.5226L53.275 41.5081C52.9535 42.2184 52.7746 43.007 52.7746 43.8374C52.7746 46.9608 55.3067 49.4928 58.4301 49.4928C61.5535 49.4928 64.0855 46.9608 64.0855 43.8374C64.0855 40.714 61.5535 38.1819 58.4301 38.1819C57.823 38.1819 57.2386 38.2774 56.6903 38.4544L48.114 29.8781C48.2782 29.3485 48.3666 28.7853 48.3666 28.2017C48.3666 25.0782 45.8345 22.5462 42.7111 22.5462C42.1275 22.5462 41.5646 22.6346 41.0347 22.7988L32.4629 14.2271Z" fill="white"/>
</svg>
