<svg width="11" height="11" viewBox="0 0 11 11" fill="none" xmlns="http://www.w3.org/2000/svg">
<g id="Group 3349">
<path id="Vector" d="M5.71198 0.537598C2.91133 0.537598 0.632812 2.81098 0.632812 5.60533C0.632812 8.39968 2.91133 10.6731 5.71198 10.6731C8.51264 10.6731 10.7912 8.39968 10.7912 5.60533C10.7912 2.81098 8.51264 0.537598 5.71198 0.537598ZM5.71198 9.65952C3.47156 9.65952 1.64865 7.84071 1.64865 5.60533C1.64865 3.36996 3.47156 1.55114 5.71198 1.55114C7.9524 1.55114 9.77532 3.36996 9.77532 5.60533C9.77532 7.84071 7.9524 9.65952 5.71198 9.65952Z" fill="white"/>
<path id="Vector_2" d="M6.21896 3.07166H5.20312V5.81533L6.8757 7.48413L7.59389 6.76755L6.21896 5.39572V3.07166Z" fill="white"/>
</g>
</svg>
