<svg xmlns="http://www.w3.org/2000/svg" width="18" height="16" fill="none"><path stroke="#FCFCFC" stroke-linecap="round" stroke-linejoin="round" stroke-width="1.234" d="M9.872 6.971c-.595-.528-1.401-.825-2.242-.825-.84 0-1.647.297-2.242.825L3.146 8.964c-.595.529-.93 1.246-.93 1.993 0 .748.335 1.465.93 1.993.594.529 1.4.826 2.242.826.84 0 1.647-.297 2.242-.826l1.12-.996"/><path stroke="#FCFCFC" stroke-linecap="round" stroke-linejoin="round" stroke-width="1.234" d="M7.63 8.964c.596.528 1.402.825 2.243.825.84 0 1.647-.297 2.242-.825l2.242-1.993c.595-.528.929-1.245.929-1.993 0-.747-.334-1.464-.929-1.993-.595-.528-1.401-.825-2.242-.825s-1.648.297-2.242.825l-1.121.997"/></svg>