<svg width="86" height="86" viewBox="0 0 86 86" fill="none" xmlns="http://www.w3.org/2000/svg">
<path d="M76.7498 6.0791H9.2144C7.28596 6.0791 5.72266 7.64241 5.72266 9.57085V77.1063C5.72266 79.0347 7.28596 80.598 9.2144 80.598H76.7498C78.6783 80.598 80.2416 79.0347 80.2416 77.1063V9.57085C80.2416 7.64241 78.6783 6.0791 76.7498 6.0791Z" fill="#3178C6"/>
<path fill-rule="evenodd" clip-rule="evenodd" d="M48.9569 63.9882V72.1533C50.4404 72.8855 52.0215 73.4009 53.6515 73.6836C55.5353 74.0314 57.4473 74.2024 59.3629 74.1946C61.2298 74.2035 63.0925 74.0152 64.9199 73.633C66.5606 73.3015 68.126 72.6699 69.5374 71.7701C70.8477 70.9243 71.9276 69.7666 72.6805 68.4007C74.0288 65.5726 74.2067 62.3266 73.1755 59.368C72.7403 58.2616 72.092 57.2515 71.2673 56.3952C70.382 55.4847 69.3765 54.6994 68.2785 54.0612C67.0145 53.3208 65.7011 52.6682 64.3477 52.1077C63.2831 51.6659 62.325 51.2366 61.4734 50.8196C60.7169 50.4574 59.993 50.0309 59.3097 49.5448C58.7744 49.1696 58.3095 48.7029 57.9364 48.1662C57.614 47.6789 57.4461 47.1057 57.4547 46.5215C57.4476 45.9838 57.5974 45.4557 57.8858 45.0018C58.1991 44.5268 58.6169 44.1299 59.1074 43.8414C59.7069 43.4885 60.3593 43.2342 61.0396 43.0883C61.8747 42.9027 62.7284 42.8134 63.5838 42.8221C64.3033 42.8246 65.0218 42.8762 65.7343 42.9765C66.5036 43.0805 67.2649 43.2379 68.0124 43.4476C68.7728 43.6583 69.5164 43.9252 70.2373 44.246C70.9368 44.5578 71.6059 44.9338 72.236 45.3691V37.7495C70.9243 37.2532 69.5639 36.8964 68.1774 36.685C66.5031 36.4413 64.8126 36.3266 63.1208 36.3416C61.2714 36.3317 59.4274 36.5416 57.6277 36.9671C56.0009 37.3388 54.454 37.9996 53.0607 38.9179C51.7664 39.7801 50.6977 40.94 49.9442 42.3005C49.1457 43.8113 48.7506 45.5026 48.7972 47.2108C48.7382 49.4697 49.4822 51.6764 50.897 53.4384C52.6327 55.3921 54.8214 56.8899 57.271 57.8004C58.3888 58.2617 59.4312 58.7133 60.3982 59.1551C61.2706 59.5433 62.1092 60.0035 62.9052 60.531C63.5472 60.9487 64.1111 61.4756 64.5712 62.0879C64.9758 62.6433 65.1905 63.3144 65.1833 64.0015C65.187 64.5163 65.0548 65.0231 64.8001 65.4706C64.5171 65.9514 64.1193 66.3546 63.6424 66.6442C63.0456 67.0081 62.3927 67.2706 61.7102 67.4214C60.8212 67.6201 59.9118 67.7139 59.0009 67.7008C57.2133 67.6975 55.4399 67.3823 53.7607 66.7693C52.0063 66.1362 50.3794 65.1944 48.9569 63.9882ZM35.24 43.6605H45.8856V36.9351H16.2031V43.6605H26.8008V73.6117H35.24V43.6605Z" fill="white"/>
</svg>
