<svg width="92" height="92" viewBox="0 0 92 92" fill="none" xmlns="http://www.w3.org/2000/svg">
<path d="M0.578125 91.7596V0.91748H91.4202V91.7596H0.578125Z" fill="#FFD600"/>
<path d="M59.9717 68.9156C61.7179 71.7519 63.6155 74.4695 67.6353 74.4695C71.0116 74.4695 72.783 72.7915 72.783 70.47C72.783 67.6917 70.951 66.7051 67.2366 65.0876L65.2002 64.2195C59.3232 61.7264 55.4145 58.6025 55.4145 52.0038C55.4145 45.9224 60.0701 41.2945 67.3451 41.2945C72.5256 41.2945 76.2476 43.0886 78.9325 47.7872L72.5887 51.8423C71.1932 49.3492 69.6843 48.3676 67.3451 48.3676C64.9579 48.3676 63.4464 49.874 63.4464 51.8423C63.4464 54.2748 64.9605 55.259 68.4554 56.7654L70.4917 57.6335C77.4185 60.5833 81.3247 63.5962 81.3247 70.369C81.3247 77.6667 75.5612 81.6663 67.8245 81.6663C60.2569 81.6663 55.9595 77.8686 53.5674 73.1675L59.9717 68.9156ZM30.7357 69.1225C32.0126 71.4087 33.953 73.1675 36.7439 73.1675C39.4137 73.1675 40.9504 72.1127 40.9504 68.0122V41.292H49.3609V69.3042C49.3609 77.8004 44.4327 81.6663 37.236 81.6663C30.7332 81.6663 26.0397 77.2604 24.127 73.1675L30.7357 69.1225Z" fill="#000001"/>
</svg>
