<svg xmlns="http://www.w3.org/2000/svg" width="16" height="16" fill="none"><g clip-path="url(#a)"><path fill="#fff" fill-rule="evenodd" d="M7.957.224A7.742 7.742 0 0 0 .213 7.968a7.739 7.739 0 0 0 5.295 7.347c.387.068.532-.164.532-.368 0-.184-.01-.793-.01-1.442-1.945.358-2.449-.474-2.603-.91-.088-.223-.465-.91-.794-1.094-.271-.145-.658-.503-.01-.513.61-.01 1.046.562 1.19.794.698 1.171 1.81.842 2.256.639.068-.503.271-.842.494-1.036-1.723-.193-3.524-.861-3.524-3.823 0-.842.3-1.54.794-2.082-.077-.193-.348-.987.078-2.052 0 0 .648-.203 2.13.794a7.186 7.186 0 0 1 1.935-.261c.658 0 1.317.087 1.936.261 1.481-1.007 2.13-.794 2.13-.794.425 1.065.155 1.859.077 2.053.494.542.794 1.229.794 2.08 0 2.972-1.81 3.63-3.533 3.824.28.242.522.707.522 1.433 0 1.036-.01 1.868-.01 2.13 0 .203.146.445.533.367a7.756 7.756 0 0 0 5.276-7.347A7.742 7.742 0 0 0 7.957.224Z" clip-rule="evenodd"/></g><defs><clipPath id="a"><path fill="#fff" d="M.213.225H15.7v15.488H.213z"/></clipPath></defs></svg>