<svg width="86" height="86" viewBox="0 0 86 86" fill="none" xmlns="http://www.w3.org/2000/svg">
<g clip-path="url(#clip0_255_6511)">
<path d="M0.0253906 74.9397C0.0253906 81.0051 4.94182 85.9208 11.0065 85.9208H74.2087C80.2741 85.9208 85.1899 81.0044 85.1899 74.9397V11.7375C85.1899 5.67211 80.2734 0.756348 74.2087 0.756348H11.0065C4.94115 0.756348 0.0253906 5.67278 0.0253906 11.7375V74.9397Z" fill="#563D7C"/>
<path d="M35.3404 38.4275V26.3669H45.9566C46.9676 26.3669 47.9426 26.4511 48.8814 26.6196C49.8203 26.7882 50.6508 27.0891 51.373 27.5224C52.0952 27.9557 52.6729 28.5575 53.1062 29.3279C53.5396 30.0982 53.7562 31.0852 53.7562 32.2888C53.7562 34.4554 53.1063 36.0202 51.8063 36.9831C50.5064 37.946 48.8453 38.4275 46.8232 38.4275H35.3404ZM24.002 17.5562V69.1206H48.9898C51.3008 69.1206 53.5516 68.8317 55.7422 68.254C57.9329 67.6762 59.8828 66.7855 61.592 65.5818C63.3012 64.3782 64.6613 62.8255 65.6724 60.9237C66.6834 59.0219 67.189 56.7711 67.189 54.1712C67.189 50.9454 66.4066 48.1891 64.8419 45.9021C63.2771 43.6152 60.9059 42.0144 57.7283 41.0996C60.0393 39.9922 61.7846 38.5719 62.9642 36.8386C64.1437 35.1054 64.7335 32.9388 64.7335 30.3389C64.7335 27.9316 64.3363 25.9095 63.5419 24.2725C62.7475 22.6356 61.6281 21.3236 60.1837 20.3366C58.7393 19.3496 57.0061 18.6394 54.9839 18.2061C52.9618 17.7728 50.723 17.5562 48.2676 17.5562H24.002ZM35.3404 60.3099V46.1549H47.6898C50.1453 46.1549 52.1192 46.7206 53.6118 47.8521C55.1043 48.9835 55.8506 50.8732 55.8506 53.5213C55.8506 54.8694 55.6219 55.9767 55.1645 56.8433C54.7071 57.71 54.0932 58.396 53.3229 58.9016C52.5526 59.4071 51.6619 59.7682 50.6508 59.9849C49.6397 60.2015 48.5805 60.3099 47.4732 60.3099H35.3404Z" fill="white"/>
</g>
<defs>
<clipPath id="clip0_255_6511">
<rect width="85.1645" height="85.1645" fill="white" transform="translate(0.0234375 0.756348)"/>
</clipPath>
</defs>
</svg>
