<svg width="36" height="36" viewBox="0 0 36 36" fill="none" xmlns="http://www.w3.org/2000/svg">
<g id="linkedin">
<rect id="bg" x="2.85938" y="2.38293" width="30.6307" height="30.6307" rx="15.3154" fill="#1275B1"/>
<g id="linked_in">
<path d="M14.4761 10.7975C14.4761 11.8199 13.59 12.6487 12.4968 12.6487C11.4037 12.6487 10.5176 11.8199 10.5176 10.7975C10.5176 9.77519 11.4037 8.94641 12.4968 8.94641C13.59 8.94641 14.4761 9.77519 14.4761 10.7975Z" fill="white"/>
<path d="M10.7882 14.0093H14.1716V24.2618H10.7882V14.0093Z" fill="white"/>
<path d="M19.6188 14.0093H16.2355V24.2618H19.6188C19.6188 24.2618 19.6188 21.0341 19.6188 19.0161C19.6188 17.8048 20.0324 16.5883 21.6827 16.5883C23.5477 16.5883 23.5365 18.1734 23.5278 19.4014C23.5164 21.0066 23.5435 22.6447 23.5435 24.2618H26.9269V18.8508C26.8982 15.3957 25.9979 13.8037 23.036 13.8037C21.277 13.8037 20.1867 14.6022 19.6188 15.3247V14.0093Z" fill="white"/>
</g>
</g>
</svg>
