<svg width="40" height="40" viewBox="0 0 40 40" fill="none" xmlns="http://www.w3.org/2000/svg">
<path d="M17.0574 3.06572C18.6622 1.3939 21.3378 1.3939 22.9426 3.06571C23.9409 4.10571 25.4151 4.54121 26.8181 4.21001C29.0622 3.6803 31.3056 5.15375 31.7567 7.41494C32.0394 8.83223 33.0481 10.0181 34.4082 10.5068C36.586 11.2892 37.6817 13.7392 36.8473 15.8977C36.3247 17.2497 36.5407 18.7964 37.4214 19.9477C38.8331 21.7933 38.4593 24.4472 36.5847 25.8202C35.4167 26.6756 34.7815 28.1003 34.9056 29.5426C35.1035 31.8416 33.3663 33.8896 31.0626 34.0203C29.6219 34.1019 28.3248 34.9474 27.6582 36.2271C26.5912 38.2753 24.0244 39.0462 22.0197 37.8996C20.7684 37.1839 19.2316 37.1839 17.9803 37.8996C15.9756 39.0462 13.4088 38.2753 12.3418 36.2271C11.6752 34.9474 10.3781 34.1019 8.93744 34.0203C6.63365 33.8896 4.89655 31.8416 5.09441 29.5426C5.21855 28.1003 4.58326 26.6756 3.41533 25.8202C1.54073 24.4472 1.16691 21.7933 2.57864 19.9477C3.45931 18.7964 3.67533 17.2497 3.15268 15.8977C2.31827 13.7392 3.41397 11.2892 5.59182 10.5068C6.95192 10.0181 7.96062 8.83223 8.24334 7.41494C8.6944 5.15375 10.9378 3.6803 13.1819 4.21001C14.5849 4.54121 16.0591 4.10571 17.0574 3.06572Z" fill="url(#paint0_linear_255_1589)"/>
<path d="M17.0574 3.06572C18.6622 1.3939 21.3378 1.3939 22.9426 3.06571C23.9409 4.10571 25.4151 4.54121 26.8181 4.21001C29.0622 3.6803 31.3056 5.15375 31.7567 7.41494C32.0394 8.83223 33.0481 10.0181 34.4082 10.5068C36.586 11.2892 37.6817 13.7392 36.8473 15.8977C36.3247 17.2497 36.5407 18.7964 37.4214 19.9477C38.8331 21.7933 38.4593 24.4472 36.5847 25.8202C35.4167 26.6756 34.7815 28.1003 34.9056 29.5426C35.1035 31.8416 33.3663 33.8896 31.0626 34.0203C29.6219 34.1019 28.3248 34.9474 27.6582 36.2271C26.5912 38.2753 24.0244 39.0462 22.0197 37.8996C20.7684 37.1839 19.2316 37.1839 17.9803 37.8996C15.9756 39.0462 13.4088 38.2753 12.3418 36.2271C11.6752 34.9474 10.3781 34.1019 8.93744 34.0203C6.63365 33.8896 4.89655 31.8416 5.09441 29.5426C5.21855 28.1003 4.58326 26.6756 3.41533 25.8202C1.54073 24.4472 1.16691 21.7933 2.57864 19.9477C3.45931 18.7964 3.67533 17.2497 3.15268 15.8977C2.31827 13.7392 3.41397 11.2892 5.59182 10.5068C6.95192 10.0181 7.96062 8.83223 8.24334 7.41494C8.6944 5.15375 10.9378 3.6803 13.1819 4.21001C14.5849 4.54121 16.0591 4.10571 17.0574 3.06572Z" fill="url(#paint1_linear_255_1589)" fill-opacity="0.1"/>
<path d="M6.13281 20.2709C6.13281 12.6126 12.3411 6.4043 19.9994 6.4043C27.6578 6.4043 33.8661 12.6126 33.8661 20.2709V20.5561C33.8661 28.2144 27.6578 34.4228 19.9994 34.4228C12.3411 34.4228 6.13281 28.2144 6.13281 20.5561V20.2709Z" fill="black" fill-opacity="0.04"/>
<path d="M7.74572 20.2709C7.74572 13.5034 13.2319 8.0172 19.9994 8.0172C26.767 8.0172 32.2532 13.5034 32.2532 20.2709V20.5561C32.2532 27.3237 26.767 32.8098 19.9994 32.8098C13.2319 32.8098 7.74572 27.3237 7.74572 20.5561V20.2709Z" stroke="white" stroke-opacity="0.3" stroke-width="3.22581"/>
<path opacity="0.8" d="M18.6221 22.7833L16.0835 20.2909C15.9468 20.1564 15.7612 20.0808 15.5677 20.0808C15.3741 20.0808 15.1886 20.1564 15.0519 20.2909C14.7666 20.571 14.7666 21.0235 15.0519 21.3037L18.11 24.3061C18.3953 24.5862 18.8562 24.5862 19.1416 24.3061L26.882 16.7067C27.1673 16.4266 27.1673 15.9741 26.882 15.694C26.7453 15.5595 26.5597 15.4839 26.3662 15.4839C26.1727 15.4839 25.9871 15.5595 25.8504 15.694L18.6221 22.7833Z" fill="white" stroke="#FDFDFD" stroke-width="0.645161"/>
<path d="M34.0554 20.5404C34.0554 28.3022 27.7632 34.5944 20.0013 34.5944C12.2395 34.5944 5.94727 28.3022 5.94727 20.5404C5.94727 12.7785 12.2395 6.48633 20.0013 6.48633C27.7632 6.48633 34.0554 12.7785 34.0554 20.5404ZM8.84066 20.5404C8.84066 26.7042 13.8375 31.701 20.0013 31.701C26.1652 31.701 31.162 26.7042 31.162 20.5404C31.162 14.3765 26.1652 9.37972 20.0013 9.37972C13.8375 9.37972 8.84066 14.3765 8.84066 20.5404Z" fill="url(#paint2_linear_255_1589)" fill-opacity="0.5"/>
<defs>
<linearGradient id="paint0_linear_255_1589" x1="7.02341" y1="3.74606" x2="28.9632" y2="38.328" gradientUnits="userSpaceOnUse">
<stop stop-color="#FFE092"/>
<stop offset="1" stop-color="#E3A302"/>
</linearGradient>
<linearGradient id="paint1_linear_255_1589" x1="-6.86938" y1="-3.12476" x2="23.516" y2="51.1104" gradientUnits="userSpaceOnUse">
<stop stop-color="white"/>
<stop offset="1" stop-color="white" stop-opacity="0"/>
</linearGradient>
<linearGradient id="paint2_linear_255_1589" x1="20.0013" y1="6.48633" x2="20.0013" y2="34.5944" gradientUnits="userSpaceOnUse">
<stop stop-color="white"/>
<stop offset="0.0001" stop-color="white" stop-opacity="0.81"/>
<stop offset="1" stop-color="white" stop-opacity="0"/>
</linearGradient>
</defs>
</svg>
