<svg width="27" height="27" viewBox="0 0 27 27" fill="none" xmlns="http://www.w3.org/2000/svg">
<g clip-path="url(#clip0_255_1739)">
<path d="M13.4014 16.6112C15.1742 16.6112 16.6114 15.174 16.6114 13.4011C16.6114 11.6281 15.1742 10.1909 13.4014 10.1909C11.6286 10.1909 10.1914 11.6281 10.1914 13.4011C10.1914 15.174 11.6286 16.6112 13.4014 16.6112Z" stroke="#CBC7C7" stroke-width="1.5" stroke-linecap="round" stroke-linejoin="round"/>
<path d="M21.3189 16.611C21.1764 16.9338 21.1339 17.2918 21.1969 17.6389C21.2598 17.986 21.4253 18.3063 21.672 18.5585L21.7362 18.6227C21.9351 18.8215 22.093 19.0575 22.2007 19.3173C22.3084 19.5771 22.3638 19.8556 22.3638 20.1369C22.3638 20.4181 22.3084 20.6966 22.2007 20.9564C22.093 21.2162 21.9351 21.4522 21.7362 21.651C21.5374 21.85 21.3014 22.0078 21.0416 22.1155C20.7818 22.2232 20.5033 22.2786 20.2221 22.2786C19.9409 22.2786 19.6624 22.2232 19.4026 22.1155C19.1428 22.0078 18.9068 21.85 18.7081 21.651L18.6439 21.5868C18.3917 21.3401 18.0714 21.1746 17.7243 21.1117C17.3772 21.0487 17.0192 21.0912 16.6965 21.2337C16.38 21.3693 16.1101 21.5945 15.92 21.8816C15.7299 22.1687 15.6278 22.5051 15.6265 22.8494V23.0313C15.6265 23.5989 15.401 24.1433 14.9997 24.5446C14.5983 24.946 14.054 25.1714 13.4865 25.1714C12.9189 25.1714 12.3746 24.946 11.9733 24.5446C11.5719 24.1433 11.3465 23.5989 11.3465 23.0313V22.935C11.3382 22.5809 11.2235 22.2374 11.0174 21.9492C10.8114 21.661 10.5233 21.4415 10.1909 21.3193C9.86813 21.1768 9.51013 21.1343 9.16303 21.1973C8.81593 21.2602 8.49564 21.4257 8.24346 21.6724L8.17926 21.7366C7.98051 21.9356 7.74449 22.0934 7.4847 22.2011C7.22491 22.3088 6.94644 22.3642 6.66521 22.3642C6.38398 22.3642 6.10551 22.3088 5.84572 22.2011C5.58593 22.0934 5.34991 21.9356 5.15116 21.7366C4.95219 21.5378 4.79435 21.3018 4.68665 21.042C4.57896 20.7822 4.52353 20.5037 4.52353 20.2225C4.52353 19.9412 4.57896 19.6627 4.68665 19.4029C4.79435 19.1431 4.95219 18.9071 5.15116 18.7083L5.21536 18.6441C5.46203 18.392 5.62751 18.0716 5.69044 17.7245C5.75338 17.3774 5.71089 17.0194 5.56846 16.6967C5.43282 16.3802 5.20761 16.1102 4.92054 15.9201C4.63347 15.73 4.29707 15.628 3.95276 15.6266H3.77086C3.2033 15.6266 2.65898 15.4011 2.25765 14.9998C1.85632 14.5984 1.63086 14.0541 1.63086 13.4865C1.63086 12.9189 1.85632 12.3746 2.25765 11.9732C2.65898 11.5719 3.2033 11.3464 3.77086 11.3464H3.86716C4.22132 11.3381 4.5648 11.2235 4.85295 11.0174C5.14109 10.8113 5.36058 10.5233 5.48286 10.1908C5.62529 9.86801 5.66778 9.51 5.60484 9.16288C5.54191 8.81576 5.37643 8.49546 5.12976 8.24327L5.06556 8.17907C4.86659 7.98031 4.70875 7.74428 4.60105 7.48448C4.49336 7.22467 4.43793 6.94619 4.43793 6.66495C4.43793 6.38371 4.49336 6.10522 4.60105 5.84542C4.70875 5.58562 4.86659 5.34959 5.06556 5.15083C5.26431 4.95185 5.50033 4.794 5.76012 4.6863C6.01991 4.5786 6.29838 4.52317 6.57961 4.52317C6.86084 4.52317 7.13931 4.5786 7.3991 4.6863C7.65889 4.794 7.89491 4.95185 8.09366 5.15083L8.15786 5.21503C8.41004 5.46172 8.73033 5.6272 9.07743 5.69014C9.42453 5.75308 9.78253 5.71059 10.1053 5.56815H10.1909C10.5073 5.43251 10.7772 5.20728 10.9674 4.9202C11.1575 4.63311 11.2595 4.2967 11.2609 3.95238V3.77047C11.2609 3.20288 11.4863 2.65854 11.8877 2.25719C12.289 1.85584 12.8333 1.63037 13.4009 1.63037C13.9684 1.63037 14.5127 1.85584 14.9141 2.25719C15.3154 2.65854 15.5409 3.20288 15.5409 3.77047V3.86677C15.5422 4.2111 15.6443 4.54751 15.8344 4.83459C16.0245 5.12168 16.2944 5.3469 16.6109 5.48254C16.9336 5.62498 17.2916 5.66747 17.6387 5.60454C17.9858 5.5416 18.3061 5.37611 18.5583 5.12943L18.6225 5.06523C18.8212 4.86625 19.0572 4.7084 19.317 4.6007C19.5768 4.493 19.8553 4.43756 20.1365 4.43756C20.4177 4.43756 20.6962 4.493 20.956 4.6007C21.2158 4.7084 21.4518 4.86625 21.6506 5.06523C21.8495 5.26398 22.0074 5.50001 22.1151 5.75982C22.2228 6.01962 22.2782 6.2981 22.2782 6.57934C22.2782 6.86059 22.2228 7.13907 22.1151 7.39887C22.0074 7.65868 21.8495 7.89471 21.6506 8.09346L21.5864 8.15767C21.3397 8.40985 21.1742 8.73016 21.1113 9.07728C21.0483 9.4244 21.0908 9.78241 21.2333 10.1052V10.1908C21.3689 10.5072 21.5941 10.7772 21.8812 10.9673C22.1683 11.1574 22.5046 11.2594 22.849 11.2608H23.0309C23.5984 11.2608 24.1427 11.4863 24.5441 11.8876C24.9454 12.289 25.1709 12.8333 25.1709 13.4009C25.1709 13.9685 24.9454 14.5128 24.5441 14.9142C24.1427 15.3155 23.5984 15.541 23.0309 15.541H22.9346C22.5902 15.5424 22.2539 15.6444 21.9668 15.8345C21.6797 16.0246 21.4545 16.2946 21.3189 16.611Z" stroke="#CBC7C7" stroke-width="1.5" stroke-linecap="round" stroke-linejoin="round"/>
</g>
<defs>
<clipPath id="clip0_255_1739">
<rect width="25.68" height="25.6812" fill="white" transform="translate(0.560547 0.560547)"/>
</clipPath>
</defs>
</svg>
