<svg width="37" height="25" viewBox="0 0 37 25" fill="none" xmlns="http://www.w3.org/2000/svg">
<path fill-rule="evenodd" clip-rule="evenodd" d="M36.41 5.92294C36.41 4.48011 35.786 3.09605 34.6765 2.07541C33.5659 1.05585 32.0598 0.482422 30.4898 0.482422C24.1883 0.482422 13.1104 0.482422 6.80889 0.482422C5.23885 0.482422 3.73275 1.05585 2.62211 2.07541C1.51266 3.09605 0.888672 4.48011 0.888672 5.92294C0.888672 9.71607 0.888672 15.1871 0.888672 18.9802C0.888672 20.423 1.51266 21.8071 2.62211 22.8277C3.73275 23.8473 5.23885 24.4207 6.80889 24.4207C13.1104 24.4207 24.1883 24.4207 30.4898 24.4207C32.0598 24.4207 33.5659 23.8473 34.6765 22.8277C35.786 21.8071 36.41 20.423 36.41 18.9802C36.41 15.1871 36.41 9.71607 36.41 5.92294ZM4.96652 5.68247C4.96652 5.68247 11.0584 10.2928 14.8793 13.1839C17.0686 14.841 20.23 14.8378 22.4158 13.1762C26.2485 10.2634 32.3771 5.60412 32.3771 5.60412C32.8804 5.22111 32.9514 4.53452 32.5346 4.07208C32.119 3.60963 31.3719 3.54435 30.8675 3.92736C30.8675 3.92736 24.7389 8.58553 20.9073 11.4995C19.5954 12.4962 17.6985 12.4983 16.3843 11.5038L6.47144 4.00244C5.96704 3.62051 5.22109 3.68689 4.80549 4.15042C4.38989 4.61395 4.46212 5.30054 4.96652 5.68247Z" fill="url(#paint0_linear_255_637)"/>
<defs>
<linearGradient id="paint0_linear_255_637" x1="7.45239" y1="-1.44808" x2="34.0934" y2="27.8956" gradientUnits="userSpaceOnUse">
<stop stop-color="#AF2A20"/>
<stop offset="0.229167" stop-color="#CE5F57" stop-opacity="0.96276"/>
<stop offset="0.5" stop-color="#982017" stop-opacity="0.935"/>
<stop offset="0.729167" stop-color="#D8635A"/>
<stop offset="1" stop-color="#99251C"/>
</linearGradient>
</defs>
</svg>
