<svg width="36" height="36" viewBox="0 0 36 36" fill="none" xmlns="http://www.w3.org/2000/svg">
<g id="whatsapp">
<path id="border" fill-rule="evenodd" clip-rule="evenodd" d="M17.5986 34.0577C26.057 34.0577 32.9139 27.2008 32.9139 18.7424C32.9139 10.2839 26.057 3.427 17.5986 3.427C9.14012 3.427 2.2832 10.2839 2.2832 18.7424C2.2832 21.4891 3.0063 24.067 4.27253 26.2961L2.2832 34.0577L10.2853 32.2021C12.4585 33.3854 14.95 34.0577 17.5986 34.0577ZM17.5986 31.7015C24.7557 31.7015 30.5577 25.8995 30.5577 18.7424C30.5577 11.5852 24.7557 5.78321 17.5986 5.78321C10.4414 5.78321 4.63941 11.5852 4.63941 18.7424C4.63941 21.5058 5.50435 24.0671 6.97828 26.1705L5.81751 30.5234L10.2471 29.416C12.3359 30.8574 14.8687 31.7015 17.5986 31.7015Z" fill="#BFC8D0"/>
<path id="bg" d="M30.7256 17.6486C30.7256 24.8986 24.8482 30.776 17.5981 30.776C14.8328 30.776 12.2672 29.921 10.1512 28.4608L5.66411 29.5826L6.83994 25.1732C5.34688 23.0425 4.4707 20.4478 4.4707 17.6486C4.4707 10.3985 10.3481 4.52112 17.5981 4.52112C24.8482 4.52112 30.7256 10.3985 30.7256 17.6486Z" fill="url(#paint0_linear_255_663)"/>
<path id="border_2" fill-rule="evenodd" clip-rule="evenodd" d="M17.5986 32.9643C26.057 32.9643 32.9139 26.1074 32.9139 17.649C32.9139 9.19053 26.057 2.33362 17.5986 2.33362C9.14012 2.33362 2.2832 9.19053 2.2832 17.649C2.2832 20.3958 3.0063 22.9737 4.27253 25.2027L2.2832 32.9643L10.2853 31.1088C12.4585 32.292 14.95 32.9643 17.5986 32.9643ZM17.5986 30.6081C24.7557 30.6081 30.5577 24.8061 30.5577 17.649C30.5577 10.4918 24.7557 4.68983 17.5986 4.68983C10.4414 4.68983 4.63941 10.4918 4.63941 17.649C4.63941 20.4124 5.50435 22.9737 6.97828 25.0772L5.81751 29.43L10.2471 28.3226C12.3359 29.764 14.8687 30.6081 17.5986 30.6081Z" fill="white"/>
<path id="phone" d="M13.7693 10.5383C13.4052 9.80695 12.8466 9.8717 12.2823 9.8717C11.2737 9.8717 9.70117 11.0797 9.70117 13.328C9.70117 15.1706 10.5131 17.1875 13.249 20.2048C15.8894 23.1166 19.3587 24.6229 22.2389 24.5716C25.1191 24.5204 25.7117 22.0419 25.7117 21.2049C25.7117 20.8339 25.4814 20.6488 25.3228 20.5985C24.3414 20.1275 22.5312 19.2498 22.1193 19.0849C21.7074 18.92 21.4923 19.143 21.3586 19.2644C20.9851 19.6203 20.2447 20.6693 19.9912 20.9053C19.7377 21.1412 19.3597 21.0218 19.2024 20.9326C18.6237 20.7004 17.0544 20.0023 15.8035 18.7898C14.2565 17.2901 14.1657 16.7742 13.8742 16.3149C13.6411 15.9475 13.8122 15.722 13.8975 15.6235C14.2308 15.2389 14.6911 14.6452 14.8975 14.3501C15.1039 14.055 14.94 13.607 14.8417 13.328C14.4189 12.128 14.0606 11.1235 13.7693 10.5383Z" fill="white"/>
</g>
<defs>
<linearGradient id="paint0_linear_255_663" x1="29.0847" y1="7.80298" x2="4.4707" y2="30.776" gradientUnits="userSpaceOnUse">
<stop stop-color="#5BD066"/>
<stop offset="1" stop-color="#27B43E"/>
</linearGradient>
</defs>
</svg>
