<svg width="425" height="374" viewBox="0 0 425 374" fill="none" xmlns="http://www.w3.org/2000/svg">
<g filter="url(#filter0_f_255_1627)">
<path d="M34.9797 63.4516C19.2418 58.5601 6.80037 21.0053 2.54688 2.83936L420.746 370.219C421.405 370.747 422.018 371.284 422.579 371.83L420.746 370.219C402.479 355.595 348.409 347.788 348.409 329.826C348.409 320.854 329.357 313.433 318.634 297.659L273.973 275.329C250.844 266.644 224.366 197.277 204.588 192.386C184.809 187.494 156.647 172.979 145.039 166.333L109.15 108.113C86.4647 99.7835 50.7177 68.3431 34.9797 63.4516Z" fill="url(#paint0_linear_255_1627)" fill-opacity="0.5"/>
</g>
<defs>
<filter id="filter0_f_255_1627" x="0.42013" y="0.71261" width="424.285" height="373.244" filterUnits="userSpaceOnUse" color-interpolation-filters="sRGB">
<feFlood flood-opacity="0" result="BackgroundImageFix"/>
<feBlend mode="normal" in="SourceGraphic" in2="BackgroundImageFix" result="shape"/>
<feGaussianBlur stdDeviation="1.06337" result="effect1_foregroundBlur_255_1627"/>
</filter>
<linearGradient id="paint0_linear_255_1627" x1="164.711" y1="218.438" x2="199.537" y2="178.296" gradientUnits="userSpaceOnUse">
<stop stop-color="#702EF4"/>
<stop offset="1" stop-color="#232323"/>
</linearGradient>
</defs>
</svg>
